<?xml version="1.0" encoding="UTF-8" standalone="no"?>
<svg
   xmlns:dc="http://purl.org/dc/elements/1.1/"
   xmlns:cc="http://creativecommons.org/ns#"
   xmlns:rdf="http://www.w3.org/1999/02/22-rdf-syntax-ns#"
   xmlns:svg="http://www.w3.org/2000/svg"
   xmlns="http://www.w3.org/2000/svg"
   xmlns:sodipodi="http://sodipodi.sourceforge.net/DTD/sodipodi-0.dtd"
   xmlns:inkscape="http://www.inkscape.org/namespaces/inkscape"
   viewBox="0 0 900 100"
   version="1.1"
   id="svg14"
   sodipodi:docname="bikeshed-letterhead.svg"
   width="900"
   height="100"
   inkscape:version="0.92.2 5c3e80d, 2017-08-06">
  <metadata
     id="metadata20">
    <rdf:RDF>
      <cc:Work
         rdf:about="">
        <dc:format>image/svg+xml</dc:format>
        <dc:type
           rdf:resource="http://purl.org/dc/dcmitype/StillImage" />
        <dc:title></dc:title>
      </cc:Work>
    </rdf:RDF>
  </metadata>
  <defs
     id="defs18" />
  <sodipodi:namedview
     pagecolor="#ffffff"
     bordercolor="#666666"
     borderopacity="1"
     objecttolerance="10"
     gridtolerance="10"
     guidetolerance="10"
     inkscape:pageopacity="0"
     inkscape:pageshadow="2"
     inkscape:window-width="1440"
     inkscape:window-height="878"
     id="namedview16"
     showgrid="false"
     inkscape:zoom="3.7044632"
     inkscape:cx="16.402576"
     inkscape:cy="46.642376"
     inkscape:window-x="1675"
     inkscape:window-y="100"
     inkscape:window-maximized="0"
     inkscape:current-layer="svg14" />
  <g
     id="g12"
     style="fill:#1a1a1a;stroke:#0000ff;stroke-width:6"
     transform="translate(12)">
    <path
       style="fill:#1a1a1a;stroke:none"
       d="M 61,2 1,34 v 6 L 5,37.867188 V 95 H 50 V 71.253906 l 15.458984,-11.390625 1.087891,3.263672 C 60.877949,66.165281 57,72.146233 57,79 c 0,9.905592 8.094408,18 18,18 9.905592,0 18,-8.094408 18,-18 0,-9.905592 -8.094408,-18 -18,-18 -0.940548,0 -1.857255,0.09575 -2.759766,0.236328 L 67.162109,46 H 55 v 6 h 7.837891 L 63.464844,53.878906 50,63.798828 V 13.867188 L 61,8 Z m 14,65 c 6.662951,0 12,5.337049 12,12 0,6.662951 -5.337049,12 -12,12 -6.662951,0 -12,-5.337049 -12,-12 0,-4.2499 2.176751,-7.951882 5.478516,-10.082031 l 2.839843,8.521484 a 4,4 0 0 1 -0.002,0.002 A 4,4 0 0 0 71,79 a 4,4 0 0 0 4,4 4,4 0 0 0 4,-4 4,4 0 0 0 -1.988281,-3.453125 L 74.175781,67.041016 C 74.449345,67.022661 74.72151,67 75,67 Z"
       id="path2"
       inkscape:connector-curvature="0" />
  </g>
  <text
     xml:space="preserve"
     style="font-style:normal;font-weight:normal;font-size:40px;line-height:125%;font-family:sans-serif;letter-spacing:0px;word-spacing:0px;fill:#1a1a1a;fill-opacity:1;stroke:none;stroke-width:1px;stroke-linecap:butt;stroke-linejoin:miter;stroke-opacity:1"
     x="136.81967"
     y="81.355934"
     id="text3713"><tspan
       sodipodi:role="line"
       id="tspan3711"
       x="136.81967"
       y="81.355934"
       style="font-style:normal;font-variant:normal;font-weight:normal;font-stretch:normal;font-size:85.33333588px;font-family:Futura;-inkscape-font-specification:Futura;fill:#1a1a1a">The BikeShed, LLC</tspan></text>
  <g
     id="g4716"
     transform="matrix(0.10806595,0,0,0.10806595,10.17391,29.392766)"
     style="fill:#ffffff">
    <g
       id="g4655"
       style="fill:#ffffff">
      <g
         id="g4653"
         style="fill:#ffffff">
        <path
           id="path4643"
           d="m 222.136,314.367 h 147.081 c -35.343,-23.38 -48.405,-62.348 -48.405,-93.731 0,-20.684 2.391,-51.332 4.705,-80.966 1.94,-24.815 3.768,-48.243 3.768,-61.372 C 329.284,47.124 316.651,0 297.613,0 c -4.724,0 -8.816,1.807 -12.508,5.546 -18.485,18.647 -18.179,73.937 -18.169,74.492 0,36.031 3.06,56.237 5.766,74.071 2.926,19.288 5.441,35.945 3.796,66.479 -2.84,51.972 -34.071,80.573 -54.362,93.779 z"
           inkscape:connector-curvature="0"
           style="fill:#ffffff" />
        <rect
           id="rect4645"
           height="9.5620003"
           width="181.688"
           y="362.17999"
           x="203.164"
           style="fill:#ffffff" />
        <rect
           id="rect4647"
           height="19.125"
           width="181.688"
           y="381.30499"
           x="203.164"
           style="fill:#ffffff" />
        <rect
           id="rect4649"
           height="19.125"
           width="181.688"
           y="333.492"
           x="203.164"
           style="fill:#ffffff" />
        <path
           id="path4651"
           d="m 173.673,539.688 c -1.721,1.233 -2.639,3.634 -2.171,5.709 0.65,2.936 4.017,5.154 9.209,6.101 6.321,1.147 14.506,2.113 23.963,2.869 0.144,0 0.201,-0.02 0.383,-0.01 12.642,0.87 25.226,-25.475 32.828,-45.747 0,0 -3.586,28.582 -8.482,47.124 8.788,0.315 18.035,0.497 27.635,0.497 39.8,0 75.009,-2.754 94.2,-7.363 10.959,-2.63 18.886,-9.734 21.21,-19.01 8.529,-34.129 11.513,-92.986 12.221,-110.304 H 203.192 c -0.057,20.838 -2.075,100.531 -29.519,120.134 z"
           inkscape:connector-curvature="0"
           style="fill:#ffffff" />
      </g>
    </g>
    <g
       id="g4657"
       style="fill:#ffffff" />
    <g
       id="g4659"
       style="fill:#ffffff" />
    <g
       id="g4661"
       style="fill:#ffffff" />
    <g
       id="g4663"
       style="fill:#ffffff" />
    <g
       id="g4665"
       style="fill:#ffffff" />
    <g
       id="g4667"
       style="fill:#ffffff" />
    <g
       id="g4669"
       style="fill:#ffffff" />
    <g
       id="g4671"
       style="fill:#ffffff" />
    <g
       id="g4673"
       style="fill:#ffffff" />
    <g
       id="g4675"
       style="fill:#ffffff" />
    <g
       id="g4677"
       style="fill:#ffffff" />
    <g
       id="g4679"
       style="fill:#ffffff" />
    <g
       id="g4681"
       style="fill:#ffffff" />
    <g
       id="g4683"
       style="fill:#ffffff" />
    <g
       id="g4685"
       style="fill:#ffffff" />
  </g>
</svg>
